<?xml version="1.0" encoding="UTF-8"?>
<svg id="_Слой_1" data-name="Слой 1" xmlns="http://www.w3.org/2000/svg" viewBox="0 0 305.15 282.59">
  <defs>
    <style>
      .cls-1 {
        fill: none;
        stroke: #449537;
        stroke-linecap: round;
        stroke-miterlimit: 10;
        stroke-width: 10.77px;
      }
    </style>
  </defs>
  <path class="cls-1" d="M211.81,186.2c6.41-7.39,7.83-12.68,9.03-17.42,2.41-9.51.66-15.06,3.19-25.85,1.57-6.71,3.24-11.52,7.66-14.68,6.25-4.47,16.61-4.09,22.34.32,12.56,9.67,6.52,41.53-5.11,61.59-15.44,26.62-42.92,36.19-53.61,39.25l-74.55.31"/>
  <path class="cls-1" d="M242.77,107.75c2.26-4.33,10.59-17.74,22.5-18.67"/>
  <path class="cls-1" d="M261,114.69c2.26-4.33,10.59-17.74,22.5-18.67"/>
  <path class="cls-1" d="M48.3,187.58c-7.39-12.55-12.02-26.71-12.02-42.34,0-46.66,37.82-84.48,84.48-84.48s84.48,37.82,84.48,84.48-37.82,84.48-84.48,84.48c-31.03,0-55.6.95-86.44,0,0,0-6.26-34.98,37.43-62.44"/>
  <path class="cls-1" d="M88.25,184.42c-13.7-9.66-23.09-23.12-23.09-41.16,0-29.47,23.89-53.36,53.36-53.36s53.36,23.89,53.36,53.36-23.89,53.36-53.36,53.36c-11.44,0-40.17.39-51.66,0"/>
  <line class="cls-1" x1="118.53" y1="121.13" x2="118.53" y2="169"/>
</svg>